<svg width="13" height="14" viewBox="0 0 13 14" fill="none" xmlns="http://www.w3.org/2000/svg">
<path fill-rule="evenodd" clip-rule="evenodd" d="M6.33338 0.399994C6.66475 0.399994 6.93338 0.668623 6.93338 0.999994V1.76321C8.3963 1.91298 9.39153 2.60945 10.0203 3.48274C10.7095 4.43998 10.9334 5.57065 10.9334 6.33333V8.75147L12.091 9.90906C12.2626 10.0807 12.3139 10.3387 12.221 10.5629C12.1282 10.7871 11.9094 10.9333 11.6667 10.9333H8.93338V11C8.93338 11.4293 8.80951 12.06 8.4203 12.6006C8.00906 13.1717 7.32893 13.6 6.33338 13.6C5.33782 13.6 4.65769 13.1717 4.24645 12.6006C3.85724 12.06 3.73338 11.4293 3.73338 11V10.9333H1.00004C0.757365 10.9333 0.538583 10.7871 0.445714 10.5629C0.352846 10.3387 0.404179 10.0807 0.575778 9.90906L1.73338 8.75147V6.33333C1.73338 4.53778 2.49496 3.35764 3.48279 2.64641C4.21213 2.12128 5.04215 1.8663 5.73338 1.77465V0.999994C5.73338 0.668623 6.002 0.399994 6.33338 0.399994ZM4.93338 10.9333V11C4.93338 11.2373 5.00951 11.6066 5.2203 11.8994C5.40906 12.1616 5.72893 12.4 6.33338 12.4C6.93782 12.4 7.25769 12.1616 7.44646 11.8994C7.65724 11.6066 7.73338 11.2373 7.73338 11V10.9333H4.93338ZM4.18396 3.62025C3.50512 4.10901 2.93338 4.92888 2.93338 6.33333V8.99999C2.93338 9.15912 2.87016 9.31174 2.75764 9.42426L2.44857 9.73333H10.2182L9.90911 9.42426C9.79659 9.31174 9.73338 9.15912 9.73338 8.99999V6.33333C9.73338 5.76267 9.55724 4.89334 9.04646 4.18391C8.55769 3.50507 7.73782 2.93333 6.33338 2.93333C5.76272 2.93333 4.89339 3.10946 4.18396 3.62025Z" fill="white"/>
</svg>
