<svg width="13" height="14" viewBox="0 0 13 14" fill="none" xmlns="http://www.w3.org/2000/svg">
<path fill-rule="evenodd" clip-rule="evenodd" d="M2.33336 1.59999C1.92835 1.59999 1.60002 1.92832 1.60002 2.33333V11.6667C1.60002 11.998 1.3314 12.2667 1.00002 12.2667C0.668654 12.2667 0.400024 11.998 0.400024 11.6667V2.33333C0.400024 1.26558 1.26561 0.399994 2.33336 0.399994H11.2667C11.819 0.399994 12.2667 0.847729 12.2667 1.39999V10.1429C12.2667 10.4742 11.9981 10.7429 11.6667 10.7429C11.3353 10.7429 11.0667 10.4742 11.0667 10.1429V1.59999H2.33336Z" fill="white"/>
<path fill-rule="evenodd" clip-rule="evenodd" d="M7.48138 3.93334C7.2366 3.93334 7.00215 4.03119 6.8299 4.20484L6.75915 4.27614C6.64651 4.38965 6.49322 4.4535 6.33331 4.45352C6.1734 4.45353 6.02009 4.38971 5.90743 4.27622L5.8367 4.20497C5.47767 3.84312 4.89266 3.84298 4.53355 4.20488C4.17768 4.56352 4.17768 5.14282 4.53355 5.50145L6.33775 7.31969C6.72458 6.9501 7.09309 6.56958 7.47022 6.18015C7.68659 5.95672 7.90581 5.73036 8.13294 5.50145C8.30396 5.3292 8.39998 5.09603 8.39998 4.85317C8.39998 4.61036 8.30409 4.37729 8.13302 4.20496C7.96089 4.0314 7.72628 3.93334 7.48138 3.93334ZM6.33361 3.07144C6.67285 2.85261 7.07073 2.73334 7.48138 2.73334C8.04653 2.73334 8.58749 2.95918 8.98467 3.35957M6.33361 3.07144C5.51102 2.53942 4.40029 2.63551 3.68175 3.35964C2.86162 4.18615 2.86162 5.52019 3.68174 6.34669C3.68174 6.34669 3.68175 6.34669 3.68174 6.34669L5.62708 8.30715C6.00322 8.68617 6.61685 8.69839 7.0083 8.33713L7.01143 8.33423C7.47304 7.9021 7.92312 7.43752 8.36019 6.98636C8.57147 6.76827 8.77972 6.55332 8.98476 6.34669C9.37927 5.94926 9.59998 5.41217 9.59998 4.85317C9.59998 4.29421 9.37909 3.75701 8.98467 3.35957" fill="white"/>
<path fill-rule="evenodd" clip-rule="evenodd" d="M1.7334 10.3333C1.7334 10.002 2.00203 9.73334 2.3334 9.73334H11.6667C11.9981 9.73334 12.2667 10.002 12.2667 10.3333C12.2667 10.6647 11.9981 10.9333 11.6667 10.9333H2.3334C2.00203 10.9333 1.7334 10.6647 1.7334 10.3333Z" fill="white"/>
<path fill-rule="evenodd" clip-rule="evenodd" d="M1.7334 13C1.7334 12.6686 2.00203 12.4 2.3334 12.4H11.6667C11.9981 12.4 12.2667 12.6686 12.2667 13C12.2667 13.3314 11.9981 13.6 11.6667 13.6H2.3334C2.00203 13.6 1.7334 13.3314 1.7334 13Z" fill="white"/>
<path fill-rule="evenodd" clip-rule="evenodd" d="M2.33336 10.9333C1.92834 10.9333 1.60002 11.2616 1.60002 11.6667C1.60002 12.0717 1.92834 12.4 2.33336 12.4C2.66473 12.4 2.93336 12.6686 2.93336 13C2.93336 13.3314 2.66473 13.6 2.33336 13.6C1.26561 13.6 0.400024 12.7344 0.400024 11.6667C0.400024 10.5989 1.26561 9.73334 2.33336 9.73334C2.66473 9.73334 2.93336 10.002 2.93336 10.3333C2.93336 10.6647 2.66473 10.9333 2.33336 10.9333Z" fill="white"/>
</svg>
