<svg viewBox="0 0 13 14" fill="none" xmlns="http://www.w3.org/2000/svg">
<g id="Icon / Collection">
<path id="Vector" d="M1 11.6667V2.33333C1 1.59695 1.59695 1 2.33333 1H11.2667C11.4876 1 11.6667 1.17909 11.6667 1.4V10.1429" stroke="white" stroke-width="1.2" stroke-linecap="round"/>
<path id="Vector_2" d="M8.99996 4.85315C8.99996 5.2541 8.84163 5.6392 8.55883 5.92405C7.90789 6.58005 7.27663 7.26405 6.60136 7.89618C6.44663 8.03898 6.20109 8.03378 6.05296 7.88451L4.10763 5.92405C3.51963 5.33148 3.51963 4.37481 4.10763 3.78224C4.70141 3.18384 5.66876 3.18384 6.26249 3.78224L6.33323 3.85349L6.40389 3.78228C6.68863 3.49522 7.07636 3.33331 7.48136 3.33331C7.88643 3.33331 8.27416 3.49521 8.55883 3.78224C8.84163 4.06713 8.99996 4.45221 8.99996 4.85315Z" stroke="white" stroke-width="1.2" stroke-linejoin="round"/>
<path id="Vector_3" d="M2.33337 10.3333H11.6667" stroke="white" stroke-width="1.2" stroke-linecap="round"/>
<path id="Vector_4" d="M2.33337 13H11.6667" stroke="white" stroke-width="1.2" stroke-linecap="round"/>
<path id="Vector_5" d="M2.33333 13C1.59695 13 1 12.4031 1 11.6667C1 10.9303 1.59695 10.3333 2.33333 10.3333" stroke="white" stroke-width="1.2" stroke-linecap="round" stroke-linejoin="round"/>
</g>
</svg>
