<svg width="14" height="14" viewBox="0 0 14 14" fill="none" xmlns="http://www.w3.org/2000/svg">
<path fill-rule="evenodd" clip-rule="evenodd" d="M5.36637 0.48519C6.05944 -0.16173 7.14056 -0.16173 7.83363 0.48519L7.83363 0.485192L12.2578 4.61479C12.2578 4.61479 12.2578 4.6148 12.2578 4.6148C12.8582 5.17521 13.2 5.95689 13.2 6.77639V11.4147C13.2 12.4077 12.3871 13.2 11.4 13.2H1.8C0.812893 13.2 0 12.4077 0 11.4147V6.77639C0 5.9569 0.341766 5.17522 0.94218 4.6148C0.942183 4.6148 0.942187 4.6148 0.94219 4.61479L5.36637 0.48519ZM7.01481 1.36242C6.7828 1.14586 6.4172 1.14586 6.18519 1.36242L1.761 5.49203L1.76099 5.49204C1.40193 5.82718 1.2 6.29195 1.2 6.77639V11.4147C1.2 11.731 1.46162 12 1.8 12H11.4C11.7384 12 12 11.731 12 11.4147V6.77639C12 6.29196 11.7981 5.82719 11.439 5.49205L11.439 5.49203L7.01481 1.36242Z" fill="white"/>
</svg>
