<svg  viewBox="0 0 17 16" fill="none" xmlns="http://www.w3.org/2000/svg">
<path d="M13.7662 12.25C13.8349 12.008 14.0862 11.8677 14.3275 11.9365C14.5688 12.0054 14.7088 12.2574 14.6401 12.4994C14.4193 13.2775 13.8026 13.8874 13.0056 14.0872L5.62121 15.9384C4.37294 16.2277 3.14848 15.4709 2.86496 14.2389L0.956592 5.94607C0.678132 4.73601 1.41754 3.52528 2.61894 3.22409L4.33525 2.79381C4.57866 2.73278 4.8253 2.88119 4.88615 3.12527C4.947 3.36936 4.79902 3.6167 4.55561 3.67772L2.8393 4.10801C2.11846 4.28872 1.67482 5.01516 1.84189 5.74119L3.75026 14.034C3.92036 14.7732 4.65497 15.2272 5.40875 15.0526L12.7852 13.2033C13.2637 13.0833 13.6335 12.7176 13.7662 12.25ZM15.9894 9.37807V2.2778C15.9894 1.523 15.3792 0.911121 14.6265 0.911121H6.44941C5.69673 0.911121 5.08656 1.523 5.08656 2.2778V7.55583L7.03675 5.60015C7.21416 5.42225 7.5018 5.42225 7.67921 5.60015L11.0501 8.98055L13.466 7.36548C13.6461 7.24502 13.8861 7.26884 14.0392 7.42239L15.9894 9.37807ZM15.978 10.6552L13.6601 8.33074L11.2442 9.94582C11.0641 10.0663 10.8242 10.0424 10.671 9.8889L7.35798 6.56654L5.08656 8.84434V10.4779C5.08656 11.2327 5.69673 11.8446 6.44941 11.8446H14.6265C15.3193 11.8446 15.8913 11.3262 15.978 10.6552ZM6.44941 0H14.6265C15.881 0 16.8979 1.01981 16.8979 2.2778V10.4779C16.8979 11.7359 15.881 12.7557 14.6265 12.7557H6.44941C5.19494 12.7557 4.17799 11.7359 4.17799 10.4779V2.2778C4.17799 1.01981 5.19494 0 6.44941 0ZM12.3551 1.82224H14.1722C14.674 1.82224 15.0808 2.23016 15.0808 2.73336V4.5556C15.0808 5.0588 14.674 5.46672 14.1722 5.46672H12.3551C11.8533 5.46672 11.4465 5.0588 11.4465 4.5556V2.73336C11.4465 2.23016 11.8533 1.82224 12.3551 1.82224ZM12.3551 2.73336V4.5556H14.1722V2.73336H12.3551Z" fill="white"/>
</svg>
