<svg width="11" height="14" viewBox="0 0 11 14" fill="none" xmlns="http://www.w3.org/2000/svg">
<path fill-rule="evenodd" clip-rule="evenodd" d="M0 1.8C0 0.805887 0.805887 0 1.8 0H6.33582C6.80625 0 7.25789 0.184143 7.59421 0.51299C7.59421 0.512991 7.59421 0.512989 7.59421 0.51299L10.2584 3.11793C10.6048 3.45661 10.8 3.92059 10.8 4.40497V11.4C10.8 12.3941 9.99413 13.2 9 13.2H1.8C0.805893 13.2 0 12.3941 0 11.4V1.8ZM1.8 1.2C1.46863 1.2 1.2 1.46863 1.2 1.8V11.4C1.2 11.7314 1.46862 12 1.8 12H9C9.33139 12 9.6 11.7314 9.6 11.4V4.40497C9.6 4.24349 9.53493 4.08886 9.41949 3.97601L6.75527 1.371C6.64315 1.26137 6.49263 1.2 6.33582 1.2H1.8Z" fill="white"/>
<path fill-rule="evenodd" clip-rule="evenodd" d="M3 7.19995C3 6.86857 3.26863 6.59995 3.6 6.59995H7.2C7.53137 6.59995 7.8 6.86857 7.8 7.19995C7.8 7.53132 7.53137 7.79995 7.2 7.79995H3.6C3.26863 7.79995 3 7.53132 3 7.19995Z" fill="white"/>
<path fill-rule="evenodd" clip-rule="evenodd" d="M3 9.6C3 9.26863 3.26863 9 3.6 9H5.4C5.73137 9 6 9.26863 6 9.6C6 9.93137 5.73137 10.2 5.4 10.2H3.6C3.26863 10.2 3 9.93137 3 9.6Z" fill="white"/>
<path fill-rule="evenodd" clip-rule="evenodd" d="M6 3.00001V0.600006H7.2V3.00001C7.2 3.33138 7.46862 3.60001 7.8 3.60001H10.2V4.80001H7.8C6.80586 4.80001 6 3.99411 6 3.00001Z" fill="white"/>
</svg>
