<svg  viewBox="0 0 16 16" fill="none" xmlns="http://www.w3.org/2000/svg">
<path fill-rule="evenodd" clip-rule="evenodd" d="M6.08772 8.25845C6.23199 8.19661 6.39564 8.19839 6.53853 8.26335L9.82385 9.75669C10.1045 9.88424 10.2285 10.2151 10.101 10.4957C9.97344 10.7764 9.64255 10.9004 9.36193 10.7729L6.30094 9.38152L0.778134 11.7484C0.494809 11.8699 0.166696 11.7386 0.0452708 11.4553C-0.0761539 11.172 0.0550917 10.8439 0.338416 10.7224L6.08772 8.25845Z" fill="white"/>
<path fill-rule="evenodd" clip-rule="evenodd" d="M11.2355 3.58025C10.6365 3.58025 10.1509 4.06581 10.1509 4.66478C10.1509 5.26375 10.6365 5.7493 11.2355 5.7493C11.8344 5.7493 12.32 5.26375 12.32 4.66478C12.32 4.06581 11.8344 3.58025 11.2355 3.58025ZM9.03467 4.66478C9.03467 3.44932 10.02 2.46399 11.2355 2.46399C12.4509 2.46399 13.4362 3.44932 13.4362 4.66478C13.4362 5.88024 12.4509 6.86557 11.2355 6.86557C10.02 6.86557 9.03467 5.88024 9.03467 4.66478Z" fill="white"/>
<path fill-rule="evenodd" clip-rule="evenodd" d="M11.5624 11.5624C11.7803 11.3444 12.1337 11.3444 12.3517 11.5624L13.6994 12.91L15.047 11.5624C15.265 11.3444 15.6184 11.3444 15.8364 11.5624C16.0543 11.7804 16.0543 12.1338 15.8364 12.3517L14.4887 13.6993L15.8364 15.047C16.0543 15.2649 16.0543 15.6183 15.8364 15.8363C15.6184 16.0542 15.265 16.0542 15.047 15.8363L13.6994 14.4886L12.3517 15.8363C12.1337 16.0543 11.7803 16.0542 11.5624 15.8363C11.3444 15.6183 11.3444 15.2649 11.5624 15.047L12.9101 13.6993L11.5624 12.3517C11.3444 12.1338 11.3444 11.7804 11.5624 11.5624Z" fill="white"/>
<path fill-rule="evenodd" clip-rule="evenodd" d="M1.11626 1.11626V14.7839H8.77142C9.07966 14.7839 9.32955 15.0338 9.32955 15.342C9.32955 15.6503 9.07966 15.9002 8.77142 15.9002H1.05093C0.470535 15.9002 0 15.4297 0 14.8492V1.05093C0 0.470517 0.470517 0 1.05093 0H14.8492C15.4297 0 15.9002 0.470535 15.9002 1.05093V8.77142C15.9002 9.07967 15.6503 9.32955 15.342 9.32955C15.0338 9.32955 14.7839 9.07967 14.7839 8.77142V1.11626H1.11626Z" fill="white"/>
</svg>
