<svg width="14" height="10" viewBox="0 0 14 10" fill="none" xmlns="http://www.w3.org/2000/svg">
<path fill-rule="evenodd" clip-rule="evenodd" d="M0.400024 2.79998C0.400024 2.46861 0.668654 2.19998 1.00002 2.19998H7.60002C7.9314 2.19998 8.20002 2.46861 8.20002 2.79998C8.20002 3.13135 7.9314 3.39998 7.60002 3.39998H1.00002C0.668654 3.39998 0.400024 3.13135 0.400024 2.79998ZM10.6 2.79998C10.6 2.46861 10.8687 2.19998 11.2 2.19998H13C13.3314 2.19998 13.6 2.46861 13.6 2.79998C13.6 3.13135 13.3314 3.39998 13 3.39998H11.2C10.8687 3.39998 10.6 3.13135 10.6 2.79998Z" fill="white"/>
<path fill-rule="evenodd" clip-rule="evenodd" d="M0.400024 7.6C0.400024 7.26863 0.668654 7 1.00002 7H2.80002C3.1314 7 3.40002 7.26863 3.40002 7.6C3.40002 7.93137 3.1314 8.2 2.80002 8.2H1.00002C0.668654 8.2 0.400024 7.93137 0.400024 7.6ZM5.80002 7.6C5.80002 7.26863 6.06865 7 6.40002 7H13C13.3314 7 13.6 7.26863 13.6 7.6C13.6 7.93137 13.3314 8.2 13 8.2H6.40002C6.06865 8.2 5.80002 7.93137 5.80002 7.6Z" fill="white"/>
<path fill-rule="evenodd" clip-rule="evenodd" d="M9.4 1.59999C8.73726 1.59999 8.2 2.13725 8.2 2.79999C8.2 3.46274 8.73726 3.99999 9.4 3.99999C10.0627 3.99999 10.6 3.46274 10.6 2.79999C10.6 2.13725 10.0627 1.59999 9.4 1.59999ZM7 2.79999C7 1.47451 8.07452 0.399994 9.4 0.399994C10.7255 0.399994 11.8 1.47451 11.8 2.79999C11.8 4.12548 10.7255 5.19999 9.4 5.19999C8.07452 5.19999 7 4.12548 7 2.79999Z" fill="white"/>
<path fill-rule="evenodd" clip-rule="evenodd" d="M4.6 6.39998C5.26274 6.39998 5.8 6.93724 5.8 7.59998C5.8 8.26272 5.26274 8.79998 4.6 8.79998C3.93726 8.79998 3.4 8.26272 3.4 7.59998C3.4 6.93724 3.93726 6.39998 4.6 6.39998ZM7 7.59998C7 6.2745 5.92548 5.19998 4.6 5.19998C3.27452 5.19998 2.2 6.2745 2.2 7.59998C2.2 8.92547 3.27452 9.99998 4.6 9.99998C5.92548 9.99998 7 8.92547 7 7.59998Z" fill="white"/>
</svg>
