<svg viewBox="0 0 14 10" fill="none" xmlns="http://www.w3.org/2000/svg">
<path d="M1 2.79999H7.6M13 2.79999H11.2" stroke="white" stroke-width="1.2" stroke-linecap="round" stroke-linejoin="round"/>
<path d="M13 7.60001H6.4M1 7.60001H2.8" stroke="white" stroke-width="1.2" stroke-linecap="round" stroke-linejoin="round"/>
<path d="M9.39998 4.6C10.3941 4.6 11.2 3.79411 11.2 2.8C11.2 1.80589 10.3941 1 9.39998 1C8.40586 1 7.59998 1.80589 7.59998 2.8C7.59998 3.79411 8.40586 4.6 9.39998 4.6Z" stroke="white" stroke-width="1.2" stroke-linecap="round" stroke-linejoin="round"/>
<path d="M4.60002 9.39999C3.60591 9.39999 2.80002 8.5941 2.80002 7.59999C2.80002 6.60588 3.60591 5.79999 4.60002 5.79999C5.59414 5.79999 6.40002 6.60588 6.40002 7.59999C6.40002 8.5941 5.59414 9.39999 4.60002 9.39999Z" stroke="white" stroke-width="1.2" stroke-linecap="round" stroke-linejoin="round"/>
</svg>
