<svg viewBox="0 0 16 16" fill="none" xmlns="http://www.w3.org/2000/svg">
<path d="M8 2C4.36364 2 1.25818 4.28067 0 7.5C1.25818 10.7193 4.36364 13 8 13C11.6364 13 14.7418 10.7193 16 7.5C14.7418 4.28067 11.6364 2 8 2ZM8 11.1667C5.99273 11.1667 4.36364 9.524 4.36364 7.5C4.36364 5.476 5.99273 3.83333 8 3.83333C10.0073 3.83333 11.6364 5.476 11.6364 7.5C11.6364 9.524 10.0073 11.1667 8 11.1667ZM8 5.3C6.79273 5.3 5.81818 6.28267 5.81818 7.5C5.81818 8.71733 6.79273 9.7 8 9.7C9.20727 9.7 10.1818 8.71733 10.1818 7.5C10.1818 6.28267 9.20727 5.3 8 5.3Z" fill="white"/>
</svg>
