<svg width="16" height="14" viewBox="0 0 16 14" fill="none" xmlns="http://www.w3.org/2000/svg">
<path fill-rule="evenodd" clip-rule="evenodd" d="M11.9454 3.81999C12.1999 3.60785 12.5783 3.64225 12.7904 3.89681L15.0563 6.61589C15.2417 6.83839 15.2417 7.1616 15.0563 7.3841L12.7904 10.1032C12.5783 10.3577 12.1999 10.3921 11.9454 10.18C11.6908 9.96786 11.6564 9.58952 11.8685 9.33496L13.3143 7.59999H8.47744C8.14607 7.59999 7.87744 7.33137 7.87744 6.99999C7.87744 6.66862 8.14607 6.39999 8.47744 6.39999H13.3143L11.8685 4.66503C11.6564 4.41046 11.6908 4.03213 11.9454 3.81999Z" fill="white"/>
<path fill-rule="evenodd" clip-rule="evenodd" d="M7.63496 0.406868C8.77738 0.311663 9.75724 1.21322 9.75724 2.35963V3.60116C9.75724 3.93253 9.48861 4.20116 9.15724 4.20116C8.82587 4.20116 8.55724 3.93253 8.55724 3.60116V2.35963C8.55724 1.91528 8.17743 1.56582 7.73462 1.60272L7.69029 1.07077L7.73462 1.60272L2.29649 2.0559C2.29649 2.0559 2.29649 2.0559 2.29648 2.0559C1.90282 2.08871 1.60002 2.41779 1.60002 2.81281V11.1872C1.60002 11.5822 1.90282 11.9113 2.2965 11.9441L7.73464 12.3973C8.17742 12.4342 8.55724 12.0847 8.55724 11.6404V10.3988C8.55724 10.0675 8.82587 9.79884 9.15724 9.79884C9.48861 9.79884 9.75724 10.0675 9.75724 10.3988V11.6404C9.75724 12.7868 8.77739 13.6884 7.63495 13.5931L2.19683 13.1399L2.19682 13.1399C1.18123 13.0553 0.400024 12.2063 0.400024 11.1872V2.81281C0.400024 1.79368 1.18121 0.944684 2.19683 0.860042L2.19683 0.860041L7.63496 0.406868Z" fill="white"/>
</svg>
