<svg width="63" height="24" viewBox="0 0 63 24" fill="none" xmlns="http://www.w3.org/2000/svg">
<path d="M2.82927 18.6554C2.82927 18.699 2.8249 18.7645 2.81617 18.8518C2.81617 19.1138 2.82054 19.3147 2.82927 19.4544C2.838 19.5941 2.85983 19.7644 2.89476 19.9652C2.93842 20.1661 3.00392 20.3494 3.09124 20.5154C3.1873 20.6813 3.31828 20.8428 3.48419 21H0.301265C0.458447 20.8428 0.585065 20.6813 0.681121 20.5154C0.777176 20.3494 0.842669 20.1661 0.877598 19.9652C0.921259 19.7556 0.94309 19.5854 0.94309 19.4544C0.951823 19.3147 0.956189 19.1095 0.956189 18.8388C0.956189 18.7602 0.956189 18.699 0.956189 18.6554V14.1757C0.956189 14.132 0.956189 14.0709 0.956189 13.9923C0.956189 13.7216 0.951823 13.5208 0.94309 13.3898C0.94309 13.2501 0.921259 13.0798 0.877598 12.8789C0.842669 12.6694 0.777176 12.4816 0.681121 12.3157C0.585065 12.1498 0.458447 11.9882 0.301265 11.8311H3.48419C3.41434 11.9009 3.34884 11.9752 3.28772 12.0537C3.22659 12.1323 3.1742 12.2022 3.13054 12.2633C3.09561 12.3157 3.06068 12.3899 3.02575 12.486C2.99082 12.582 2.96026 12.6519 2.93406 12.6956C2.91659 12.7392 2.89913 12.8178 2.88166 12.9313C2.8642 13.0449 2.8511 13.1191 2.84237 13.154C2.84237 13.1802 2.838 13.2632 2.82927 13.4029C2.82927 13.5426 2.8249 13.6212 2.81617 13.6387C2.81617 13.6561 2.81617 13.7478 2.81617 13.9137C2.8249 14.0709 2.82927 14.1582 2.82927 14.1757V18.6554ZM4.69007 16.7692C4.69007 16.1579 4.58529 15.7475 4.37571 15.5379C4.57655 15.5379 4.93021 15.4244 5.43669 15.1974C5.95189 14.9616 6.32738 14.8437 6.56315 14.8437V16.5072C6.65048 16.1317 6.81639 15.813 7.0609 15.551C7.31413 15.2803 7.59357 15.0926 7.8992 14.9878C8.21356 14.8743 8.54102 14.8306 8.88159 14.8568C9.22215 14.8743 9.53214 14.9616 9.81158 15.1188C10.091 15.2672 10.3181 15.4986 10.4927 15.813C10.6761 16.1274 10.7678 16.4941 10.7678 16.9133V18.6554C10.7678 18.699 10.7678 18.7645 10.7678 18.8518C10.7678 19.0614 10.7678 19.223 10.7678 19.3365C10.7765 19.4413 10.7896 19.5854 10.8071 19.7687C10.8333 19.9434 10.8682 20.0875 10.9118 20.201C10.9555 20.3145 11.021 20.4455 11.1083 20.5939C11.1956 20.7337 11.3004 20.869 11.4227 21H8.25286C8.41004 20.8428 8.53666 20.6813 8.63271 20.5154C8.72877 20.3494 8.79426 20.1661 8.82919 19.9652C8.86412 19.7556 8.88595 19.5854 8.89468 19.4544C8.90342 19.3147 8.90778 19.1095 8.90778 18.8388C8.90778 18.7602 8.90778 18.699 8.90778 18.6554V17.28C8.90778 16.9744 8.83356 16.7124 8.68511 16.4941C8.53666 16.2671 8.35328 16.1143 8.13497 16.0357C7.9254 15.9571 7.70709 15.9265 7.48005 15.944C7.26174 15.9527 7.06526 16.04 6.89062 16.206C6.71597 16.3719 6.60682 16.5902 6.56315 16.8609V18.6554C6.56315 18.699 6.55879 18.7645 6.55006 18.8518C6.55006 19.1138 6.55442 19.3147 6.56315 19.4544C6.57189 19.5941 6.59372 19.7644 6.62865 19.9652C6.67231 20.1661 6.7378 20.3494 6.82512 20.5154C6.92118 20.6813 7.05216 20.8428 7.21808 21H4.03515C4.19233 20.8428 4.31895 20.6813 4.415 20.5154C4.51106 20.3494 4.57655 20.1661 4.61148 19.9652C4.65514 19.7556 4.67697 19.5854 4.67697 19.4544C4.68571 19.3147 4.69007 19.1095 4.69007 18.8388C4.69007 18.7602 4.69007 18.699 4.69007 18.6554V16.7692ZM15.0221 14.8437C15.5111 14.835 15.9477 14.8961 16.332 15.0271C16.7162 15.1581 17.0393 15.3546 17.3012 15.6165C17.5632 15.8698 17.7641 16.1972 17.9038 16.5989C18.0435 16.9919 18.1134 17.4459 18.1134 17.9612C18.1134 18.9217 17.8514 19.6683 17.3274 20.201C16.8035 20.7337 16.0569 21 15.0876 21C14.1096 21 13.3368 20.7337 12.7692 20.201C12.2016 19.6683 11.9178 18.9217 11.9178 17.9612C11.9178 16.9395 12.1885 16.1623 12.7299 15.6296C13.2713 15.097 14.0354 14.835 15.0221 14.8437ZM15.2579 20.7511C15.4325 20.7424 15.5853 20.6725 15.7163 20.5416C15.8473 20.4106 15.9477 20.2359 16.0176 20.0176C16.0962 19.7906 16.1529 19.5373 16.1879 19.2579C16.2315 18.9785 16.249 18.6859 16.2403 18.3803C16.2315 18.0659 16.2053 17.7559 16.1617 17.4503C16.1267 17.1359 16.0656 16.8391 15.9783 16.5596C15.8997 16.2715 15.8037 16.0182 15.6901 15.7999C15.5853 15.5816 15.4544 15.407 15.2972 15.276C15.1487 15.1362 14.9872 15.062 14.8125 15.0533C14.5244 15.0708 14.293 15.276 14.1183 15.6689C13.9437 16.0619 13.852 16.5334 13.8432 17.0836C13.8432 17.6337 13.8869 18.1838 13.9742 18.734C14.0616 19.2841 14.2231 19.7556 14.4589 20.1486C14.6946 20.5328 14.961 20.7337 15.2579 20.7511ZM20.5746 14.8437C20.5746 15.6034 20.6925 16.4112 20.9283 17.2669C21.1728 18.1227 21.5046 18.9086 21.9238 19.6247C22.1421 19.223 22.3342 18.8344 22.5001 18.4589C22.666 18.0747 22.8145 17.6686 22.9455 17.2407C23.0852 16.8041 23.1507 16.3981 23.1419 16.0226C23.1332 15.6384 23.0371 15.3196 22.8538 15.0664C23.1157 15.1188 23.4257 15.097 23.7838 15.0009C24.1418 14.8961 24.4692 14.8437 24.7661 14.8437C24.5915 15.0184 24.3601 15.3939 24.0719 15.9702C23.7838 16.5465 23.5174 17.1752 23.2729 17.8564C23.0371 18.5288 22.8712 19.1662 22.7752 19.7687C22.6791 20.3625 22.7403 20.773 22.9586 21H20.1162C20.3083 20.7992 20.3476 20.4018 20.2341 19.808C20.1293 19.2142 19.9503 18.5768 19.697 17.8957C19.4525 17.2145 19.1818 16.5814 18.8849 15.9964C18.588 15.4113 18.3523 15.0271 18.1776 14.8437H20.5746ZM26.776 18.0135C27.2389 17.8651 27.6144 17.6075 27.9025 17.2407C28.1907 16.8652 28.3741 16.5029 28.4527 16.1536C28.5312 15.8654 28.5094 15.6122 28.3872 15.3939C28.2736 15.1755 28.099 15.062 27.8632 15.0533C27.7584 15.0446 27.6362 15.1101 27.4965 15.2498C27.3567 15.3808 27.2214 15.5641 27.0904 15.7999C26.9594 16.0357 26.859 16.3544 26.7891 16.7561C26.728 17.149 26.7237 17.5682 26.776 18.0135ZM30.2864 19.6378V20.0307C29.9459 20.3713 29.5748 20.6201 29.1731 20.7773C28.7714 20.9258 28.4308 21 28.1514 21C27.1559 21 26.3569 20.7424 25.7544 20.2272C25.1606 19.712 24.8462 18.9828 24.8113 18.0397C24.7763 17.0617 25.034 16.2845 25.5841 15.7082C26.1342 15.1319 26.8983 14.8437 27.8763 14.8437C28.6273 14.8437 29.1993 15.0009 29.5922 15.3153C29.9939 15.6296 30.1947 15.9964 30.1947 16.4155C30.186 16.6862 30.1074 16.9569 29.959 17.2276C29.8105 17.4896 29.601 17.7297 29.3303 17.9481C29.0595 18.1576 28.7059 18.3148 28.2693 18.4196C27.8327 18.5157 27.3524 18.5288 26.8284 18.4589C26.8459 18.6073 26.8852 18.7733 26.9463 18.9566C27.0162 19.14 27.1035 19.3321 27.2083 19.533C27.3218 19.7251 27.4659 19.9041 27.6405 20.07C27.8152 20.2272 28.0073 20.3407 28.2169 20.4106C28.5225 20.5154 28.8631 20.4935 29.2386 20.3451C29.6141 20.1966 29.9633 19.9609 30.2864 19.6378ZM31.4102 13.7565C31.4102 13.1453 31.3055 12.7349 31.0959 12.5253C31.2967 12.5253 31.6504 12.4118 32.1569 12.1847C32.6721 11.949 33.0476 11.8311 33.2833 11.8311V18.6554C33.2833 18.699 33.279 18.7645 33.2702 18.8518C33.2702 19.1138 33.2746 19.3147 33.2833 19.4544C33.2921 19.5941 33.3139 19.7644 33.3488 19.9652C33.3925 20.1661 33.458 20.3494 33.5453 20.5154C33.6414 20.6813 33.7723 20.8428 33.9383 21H30.7553C30.9125 20.8428 31.0391 20.6813 31.1352 20.5154C31.2312 20.3494 31.2967 20.1661 31.3317 19.9652C31.3753 19.7556 31.3971 19.5854 31.3971 19.4544C31.4059 19.3147 31.4102 19.1095 31.4102 18.8388C31.4102 18.7602 31.4102 18.699 31.4102 18.6554C31.4102 17.6075 31.4102 15.9746 31.4102 13.7565ZM37.2859 14.8437H37.5348C37.6221 14.8437 37.6833 14.8786 37.7182 14.9485C37.7531 15.0096 37.7531 15.0751 37.7182 15.145C37.6833 15.2148 37.6221 15.2498 37.5348 15.2498H36.8013V18.6554C36.8013 18.8911 36.8013 19.0483 36.8013 19.1269C36.8013 19.2055 36.8057 19.3496 36.8144 19.5592C36.8319 19.76 36.8581 19.9085 36.893 20.0045C36.9279 20.1006 36.9716 20.2228 37.024 20.3713C37.0851 20.511 37.1637 20.6332 37.2597 20.738C37.3558 20.8341 37.4737 20.9214 37.6134 21H35.3736C35.164 21 34.9981 20.917 34.8758 20.7511C34.7536 20.5765 34.7274 20.3931 34.7972 20.201C34.8147 20.1311 34.8322 20.0656 34.8496 20.0045C34.8671 19.9347 34.8802 19.8604 34.8889 19.7818C34.9064 19.6945 34.9151 19.629 34.9151 19.5854C34.9238 19.533 34.9282 19.4544 34.9282 19.3496C34.9369 19.2448 34.9413 19.1749 34.9413 19.14C34.9413 19.1051 34.9413 19.0221 34.9413 18.8911C34.9413 18.7602 34.9413 18.6816 34.9413 18.6554C34.9413 18.472 34.9457 18.162 34.9544 17.7254C34.9631 17.28 34.9631 16.8871 34.9544 16.5465C34.9544 16.206 34.9413 15.896 34.9151 15.6165C34.854 15.3895 34.723 15.2672 34.5222 15.2498C34.3999 15.241 34.3388 15.1712 34.3388 15.0402C34.3388 14.9092 34.3999 14.8437 34.5222 14.8437H34.6138C34.8234 14.8437 35.1902 14.7215 35.7141 14.477C36.2468 14.2237 36.6266 14.0971 36.8537 14.0971C36.7751 14.2281 36.7576 14.3765 36.8013 14.5425C36.8275 14.6298 36.8843 14.704 36.9716 14.7651C37.0676 14.8175 37.1724 14.8437 37.2859 14.8437ZM41.1167 14.8437C41.6057 14.835 42.0424 14.8961 42.4266 15.0271C42.8108 15.1581 43.1339 15.3546 43.3959 15.6165C43.6578 15.8698 43.8587 16.1972 43.9984 16.5989C44.1381 16.9919 44.208 17.4459 44.208 17.9612C44.208 18.9217 43.946 19.6683 43.4221 20.201C42.8981 20.7337 42.1515 21 41.1822 21C40.2042 21 39.4314 20.7337 38.8638 20.201C38.2962 19.6683 38.0124 18.9217 38.0124 17.9612C38.0124 16.9395 38.2831 16.1623 38.8245 15.6296C39.3659 15.097 40.13 14.835 41.1167 14.8437ZM41.3525 20.7511C41.5271 20.7424 41.68 20.6725 41.8109 20.5416C41.9419 20.4106 42.0424 20.2359 42.1122 20.0176C42.1908 19.7906 42.2476 19.5373 42.2825 19.2579C42.3262 18.9785 42.3436 18.6859 42.3349 18.3803C42.3262 18.0659 42.3 17.7559 42.2563 17.4503C42.2214 17.1359 42.1602 16.8391 42.0729 16.5596C41.9943 16.2715 41.8983 16.0182 41.7848 15.7999C41.68 15.5816 41.549 15.407 41.3918 15.276C41.2433 15.1362 41.0818 15.062 40.9072 15.0533C40.619 15.0708 40.3876 15.276 40.2129 15.6689C40.0383 16.0619 39.9466 16.5334 39.9379 17.0836C39.9379 17.6337 39.9815 18.1838 40.0689 18.734C40.1562 19.2841 40.3177 19.7556 40.5535 20.1486C40.7893 20.5328 41.0556 20.7337 41.3525 20.7511ZM46.6693 14.8437C46.6693 15.6034 46.7871 16.4112 47.0229 17.2669C47.2674 18.1227 47.5992 18.9086 48.0184 19.6247C48.2367 19.223 48.4288 18.8344 48.5947 18.4589C48.7606 18.0747 48.9091 17.6686 49.0401 17.2407C49.1798 16.8041 49.2453 16.3981 49.2366 16.0226C49.2278 15.6384 49.1318 15.3196 48.9484 15.0664C49.2366 15.1101 49.4287 15.1144 49.5247 15.0795C49.6295 15.0446 49.7954 14.9965 50.0225 14.9354C50.2495 14.8743 50.494 14.8437 50.756 14.8437C50.6425 15.4724 50.6992 16.2322 50.9263 17.1229C51.1533 18.0048 51.4939 18.8344 51.9479 19.6116C52.1662 19.2186 52.3584 18.8344 52.5243 18.4589C52.6902 18.0747 52.8386 17.6686 52.9696 17.2407C53.1093 16.8041 53.1705 16.3981 53.153 16.0226C53.1443 15.6384 53.0526 15.3196 52.8779 15.0664C53.1661 15.1101 53.3669 15.1144 53.4805 15.0795C53.594 15.0446 53.773 14.9965 54.0175 14.9354C54.2707 14.8743 54.5283 14.8437 54.7903 14.8437C54.6157 15.0184 54.3843 15.3939 54.0961 15.9702C53.8079 16.5465 53.5416 17.1752 53.2971 17.8564C53.0526 18.5288 52.8823 19.1662 52.7862 19.7687C52.6989 20.3625 52.7644 20.773 52.9827 21H50.1403C50.2888 20.869 50.3412 20.5983 50.2975 20.1879C50.2626 19.7687 50.1753 19.3234 50.0356 18.8518C49.8958 18.3803 49.7168 17.8695 49.4985 17.3193C49.3501 17.7123 49.2235 18.0921 49.1187 18.4589C49.0226 18.8257 48.944 19.1837 48.8829 19.533C48.8218 19.8735 48.8043 20.1748 48.8305 20.4368C48.8654 20.69 48.9397 20.8777 49.0532 21H46.2108C46.4029 20.7992 46.4422 20.4018 46.3287 19.808C46.2239 19.2142 46.0449 18.5768 45.7917 17.8957C45.5472 17.2145 45.2764 16.5814 44.9796 15.9964C44.6827 15.4113 44.4469 15.0271 44.2722 14.8437H46.6693ZM55.5874 16.7692C55.5874 16.1579 55.4826 15.7475 55.273 15.5379C55.4739 15.5379 55.8275 15.4244 56.334 15.1974C56.8492 14.9616 57.2247 14.8437 57.4605 14.8437V16.5072C57.5478 16.1317 57.7137 15.813 57.9582 15.551C58.2114 15.2803 58.4909 15.0926 58.7965 14.9878C59.1109 14.8743 59.4383 14.8306 59.7789 14.8568C60.1194 14.8743 60.4294 14.9616 60.7089 15.1188C60.9883 15.2672 61.2154 15.4986 61.39 15.813C61.5734 16.1274 61.6651 16.4941 61.6651 16.9133V18.6554C61.6651 18.699 61.6651 18.7645 61.6651 18.8518C61.6651 19.0614 61.6651 19.223 61.6651 19.3365C61.6738 19.4413 61.6869 19.5854 61.7044 19.7687C61.7306 19.9434 61.7655 20.0875 61.8091 20.201C61.8528 20.3145 61.9183 20.4455 62.0056 20.5939C62.0929 20.7337 62.1977 20.869 62.32 21H59.1502C59.3073 20.8428 59.434 20.6813 59.53 20.5154C59.6261 20.3494 59.6916 20.1661 59.7265 19.9652C59.7614 19.7556 59.7833 19.5854 59.792 19.4544C59.8007 19.3147 59.8051 19.1095 59.8051 18.8388C59.8051 18.7602 59.8051 18.699 59.8051 18.6554V17.28C59.8051 16.9744 59.7309 16.7124 59.5824 16.4941C59.434 16.2671 59.2506 16.1143 59.0323 16.0357C58.8227 15.9571 58.6044 15.9265 58.3773 15.944C58.159 15.9527 57.9626 16.04 57.7879 16.206C57.6133 16.3719 57.5041 16.5902 57.4605 16.8609V18.6554C57.4605 18.699 57.4561 18.7645 57.4474 18.8518C57.4474 19.1138 57.4517 19.3147 57.4605 19.4544C57.4692 19.5941 57.491 19.7644 57.5259 19.9652C57.5696 20.1661 57.6351 20.3494 57.7224 20.5154C57.8185 20.6813 57.9495 20.8428 58.1154 21H54.9324C55.0896 20.8428 55.2162 20.6813 55.3123 20.5154C55.4084 20.3494 55.4739 20.1661 55.5088 19.9652C55.5524 19.7556 55.5743 19.5854 55.5743 19.4544C55.583 19.3147 55.5874 19.1095 55.5874 18.8388C55.5874 18.7602 55.5874 18.699 55.5874 18.6554V16.7692Z" fill="#F96587"/>
<path fill-rule="evenodd" clip-rule="evenodd" d="M12.602 5.34237L12.4177 5.44507C11.9227 5.67801 12.0761 5.54177 12.0013 5.54682L12.5349 5.26154C12.9381 5.00637 13.4991 4.72226 14.0669 4.52345C15.788 3.92063 14.9782 4.03448 16.8355 2.19648C17.3638 1.67323 17.8412 1.46933 18.2143 0.964223C16.043 0.96135 13.7989 1.96606 12.0021 2.9924C11.0431 3.54006 10.2601 3.98088 9.38462 4.73319C8.07692 5.8568 8.17932 6.0494 7.69239 7.96736C7.59065 7.45576 7.73408 7.24858 7.72639 6.88783L7.68013 6.55874C7.67519 6.53061 7.66603 6.48402 7.65121 6.44943C6.72641 7.93888 5.43098 11.2592 6.23409 13.0156C7.91578 9.51076 8.49891 7.64846 11.281 5.01333C11.5942 4.71661 11.4747 4.78608 11.8076 4.60619C11.2203 5.53502 9.99773 6.6982 8.89855 8.57951C8.35741 9.50547 7.72995 10.7244 7.23549 11.9211L7.23966 11.9107C6.55433 13.439 6.10547 15.1471 5.89282 17.0356C6.56869 15.2524 7.13588 13.9929 7.59452 13.2573L7.57019 13.268C8.35471 12.9218 9.18032 12.4397 9.56062 11.9552L8.42205 12.1205C8.65134 11.8689 8.69247 11.8885 9.03516 11.7289C10.4008 11.0932 11.8215 10.0956 12.4353 8.55672C11.6758 8.61662 10.6816 8.9809 10.0331 9.06394C10.0587 9.04287 10.1063 8.97984 10.1123 9.00349L10.355 8.8431C13.2245 7.21772 11.8491 9.62103 14.5756 4.8113C13.8606 4.86076 13.1716 5.13055 12.6022 5.34231L12.602 5.34237ZM7.23355 11.9255C7.22287 11.9517 7.21223 11.9778 7.20154 12.0039C7.21213 11.9778 7.22287 11.9516 7.23355 11.9255ZM7.19895 12.0097C7.18851 12.0357 7.17797 12.0618 7.16749 12.0878C7.17777 12.0618 7.18851 12.0357 7.19895 12.0097ZM7.16535 12.0928C7.15507 12.1181 7.14514 12.1433 7.13507 12.1686C7.14514 12.1433 7.15527 12.1181 7.16535 12.0928ZM7.13145 12.1777C7.12148 12.2026 7.11181 12.2273 7.10204 12.2521C7.11176 12.2273 7.12163 12.2025 7.13145 12.1777ZM7.09781 12.2624C7.08835 12.2868 7.07893 12.3111 7.06946 12.3354C7.07877 12.3112 7.0884 12.2868 7.09781 12.2624ZM7.06635 12.3431C7.05638 12.3692 7.04646 12.3952 7.03648 12.4211C7.04641 12.3952 7.05638 12.3692 7.06635 12.3431ZM7.03515 12.424C7.02518 12.4502 7.01536 12.4764 7.00554 12.5026C7.01516 12.4764 7.02528 12.4502 7.03515 12.424ZM7.00329 12.5081C6.99403 12.5332 6.98461 12.5583 6.97535 12.5833C6.98446 12.5583 6.99403 12.5331 7.00345 12.508L7.00329 12.5081ZM6.97255 12.5907C6.96303 12.616 6.95382 12.6414 6.94456 12.6668C6.95382 12.6415 6.96319 12.616 6.97255 12.5907ZM6.94283 12.6714C6.93331 12.6972 6.9241 12.7229 6.91489 12.7486C6.92405 12.7229 6.93346 12.6972 6.94283 12.6714ZM6.91306 12.7534C6.90384 12.7791 6.89473 12.8048 6.88567 12.8304C6.89453 12.8049 6.90395 12.7791 6.91306 12.7534ZM6.88409 12.8345C6.87529 12.8593 6.86684 12.8841 6.85814 12.9089C6.86674 12.8841 6.87549 12.8593 6.88409 12.8345ZM6.85508 12.9173C6.84633 12.9428 6.83767 12.9681 6.82902 12.9934C6.83752 12.9681 6.84638 12.9428 6.85508 12.9173ZM6.82826 12.9957C6.81946 13.0215 6.81075 13.0473 6.80215 13.073C6.8107 13.0473 6.81946 13.0215 6.82826 12.9957ZM6.80098 13.0763C6.79222 13.1023 6.78377 13.1282 6.77533 13.154C6.78367 13.1282 6.79238 13.1023 6.80098 13.0763ZM6.77462 13.1556C6.76632 13.181 6.75828 13.2062 6.75024 13.2314C6.75807 13.2063 6.76652 13.181 6.77462 13.1556ZM6.72316 13.3164C6.71517 13.3415 6.70758 13.3666 6.69989 13.3916C6.70738 13.3666 6.71537 13.3415 6.72316 13.3164ZM6.69913 13.3943C6.6913 13.4193 6.68392 13.4443 6.67643 13.4691C6.68376 13.4443 6.69145 13.4193 6.69913 13.3943ZM6.67547 13.4718C6.66793 13.4971 6.66056 13.5224 6.65328 13.5475C6.66056 13.5224 6.66809 13.4971 6.67547 13.4718ZM6.65277 13.5487C6.64544 13.5743 6.63821 13.5997 6.63098 13.6251C6.63816 13.5997 6.64544 13.5742 6.65277 13.5487ZM6.63088 13.6252C6.6601 13.616 6.68992 13.6065 6.7201 13.5966C6.68982 13.6065 6.66025 13.6159 6.63088 13.6252ZM6.72127 13.5962C6.75095 13.5865 6.78128 13.5764 6.81182 13.5659C6.78123 13.5764 6.7511 13.5864 6.72127 13.5962ZM6.8134 13.5654C6.84434 13.5548 6.87595 13.5438 6.90781 13.5324C6.87575 13.5438 6.8445 13.5548 6.8134 13.5654ZM6.95744 13.5146C6.98935 13.503 7.02182 13.491 7.05444 13.4788C7.02177 13.4911 6.98955 13.503 6.95744 13.5146ZM7.0549 13.4786C7.07124 13.4725 7.08768 13.4663 7.10412 13.46C7.08763 13.4663 7.07144 13.4724 7.0549 13.4786ZM7.10779 13.4586C7.12316 13.4528 7.13843 13.4468 7.15385 13.4408C7.13827 13.4468 7.12316 13.4527 7.10779 13.4586ZM7.20678 13.42C7.22236 13.4139 7.23808 13.4076 7.25366 13.4014C7.23798 13.4076 7.22251 13.4138 7.20699 13.42L7.20678 13.42ZM7.30893 13.379C7.32451 13.3726 7.34028 13.3662 7.35596 13.3596C7.34008 13.3662 7.32466 13.3726 7.30893 13.379ZM7.36156 13.3573C7.37545 13.3516 7.3895 13.3457 7.40345 13.3398C7.3893 13.3458 7.3755 13.3516 7.36156 13.3573ZM7.41368 13.3355C7.42905 13.3291 7.44447 13.3226 7.45979 13.316C7.44442 13.3226 7.4291 13.3291 7.41368 13.3355ZM7.46682 13.313C7.48193 13.3066 7.49705 13.3 7.51227 13.2934C7.49705 13.3001 7.48193 13.3065 7.46682 13.313ZM7.51756 13.2911C7.53242 13.2847 7.54749 13.2781 7.56245 13.2715C7.54728 13.2781 7.53247 13.2846 7.51756 13.2911ZM7.3072 13.3798C7.29214 13.3859 7.27717 13.392 7.26216 13.398L7.3072 13.3798ZM7.20388 13.4212C7.18749 13.4277 7.17105 13.4342 7.15471 13.4405L7.20388 13.4212ZM6.95673 13.5149C6.94064 13.5207 6.92466 13.5264 6.90883 13.5321L6.95673 13.5149ZM6.72392 13.3138C6.73196 13.2886 6.74001 13.2633 6.7481 13.2379L6.72392 13.3138Z" fill="#F96587"/>
</svg>
